<svg width="76" height="24" viewBox="0 0 76 24" fill="none" xmlns="http://www.w3.org/2000/svg">
<path d="M36.8394 15.9383C36.8394 15.2802 36.5995 14.7729 36.1196 14.4165C35.6467 14.06 34.7892 13.7001 33.547 13.3368C32.3048 12.9734 31.3167 12.569 30.5827 12.1234C29.1782 11.2665 28.476 10.1491 28.476 8.77121C28.476 7.5647 28.9806 6.57069 29.9899 5.7892C31.0062 5.00771 32.3225 4.61697 33.9387 4.61697C35.0115 4.61697 35.9678 4.80891 36.8077 5.1928C37.6476 5.57669 38.3075 6.12511 38.7874 6.83805C39.2673 7.54413 39.5073 8.32905 39.5073 9.1928L36.8394 9.1928C36.8394 8.41131 36.5854 7.8012 36.0772 7.36247C35.5761 6.91688 34.8562 6.69409 33.9175 6.69409C33.0424 6.69409 32.3613 6.87575 31.8743 7.23907C31.3944 7.6024 31.1544 8.10968 31.1544 8.76093C31.1544 9.30934 31.4155 9.76864 31.9378 10.1388C32.4601 10.5021 33.3211 10.8586 34.521 11.2082C35.7208 11.551 36.6842 11.9452 37.4111 12.3907C38.1381 12.8295 38.6709 13.3368 39.0097 13.9126C39.3485 14.4816 39.5179 15.15 39.5179 15.9177C39.5179 17.1654 39.0238 18.1594 38.0357 18.8997C37.0547 19.6332 35.7208 20 34.034 20C32.9188 20 31.8919 19.8012 30.9533 19.4036C30.0216 18.9991 29.2947 18.4439 28.7724 17.7378C28.2572 17.0317 27.9996 16.2091 27.9996 15.2699L30.678 15.2699C30.678 16.12 30.9674 16.7781 31.5461 17.2442C32.1248 17.7104 32.9541 17.9434 34.034 17.9434C34.9656 17.9434 35.6643 17.7618 36.1301 17.3985C36.603 17.0283 36.8394 16.5416 36.8394 15.9383Z" fill="#85FFF8"/>
<path d="M41.1376 14.1285C41.1376 13.0386 41.36 12.0583 41.8046 11.1877C42.2492 10.3102 42.8739 9.63839 43.6784 9.17224C44.483 8.69923 45.4076 8.46272 46.4522 8.46272C47.9978 8.46272 49.2506 8.94602 50.2104 9.9126C51.1773 10.8792 51.6996 12.1611 51.7773 13.7584L51.7878 14.3445C51.7878 15.4413 51.569 16.4216 51.1315 17.2853C50.7009 18.1491 50.0799 18.8175 49.2682 19.2905C48.4636 19.7635 47.532 20 46.4733 20C44.8571 20 43.562 19.479 42.588 18.437C41.6211 17.3882 41.1376 15.9931 41.1376 14.2519V14.1285ZM43.7102 14.3445C43.7102 15.4893 43.9537 16.3873 44.4407 17.0386C44.9277 17.6829 45.6052 18.0051 46.4733 18.0051C47.3414 18.0051 48.0155 17.6761 48.4954 17.018C48.9824 16.3599 49.2259 15.3967 49.2259 14.1285C49.2259 13.0043 48.9753 12.1131 48.4742 11.455C47.9802 10.7969 47.3061 10.4679 46.4522 10.4679C45.6123 10.4679 44.9453 10.7935 44.4513 11.4447C43.9572 12.0891 43.7102 13.0557 43.7102 14.3445Z" fill="#85FFF8"/>
<path d="M56.7001 19.7943L54.1275 19.7943L54.1275 4L56.7001 4L56.7001 19.7943Z" fill="#85FFF8"/>
<path d="M62.7345 5.96401L62.7345 8.66838L64.7565 8.66838L64.7565 10.5193L62.7345 10.5193L62.7345 16.7301C62.7345 17.1551 62.8192 17.4636 62.9885 17.6555C63.165 17.8406 63.4755 17.9332 63.9202 17.9332C64.2166 17.9332 64.5166 17.8989 64.82 17.8303V19.7635C64.2342 19.9212 63.6696 20 63.1262 20C61.15 20 60.1619 18.9409 60.1619 16.8226L60.1619 10.5193L58.2775 10.5193L58.2775 8.66838L60.1619 8.66838L60.1619 5.96401L62.7345 5.96401Z" fill="#85FFF8"/>
<path d="M70.8439 12.329L73.0247 8.66838L75.8831 8.66838L72.3789 14.1491L75.9996 19.7943L73.1623 19.7943L70.8756 15.9897L68.5995 19.7943L65.7411 19.7943L69.3617 14.1491L65.8681 8.66838L68.7053 8.66838L70.8439 12.329Z" fill="#85FFF8"/>
<path d="M1.41144e-05 15.2727C2.59638 10.7194 5.30307 6.54546 10.0146 6.54546C14.7261 6.54546 18.5455 10.4528 18.5455 15.2727C18.5455 20.0927 14.7261 24 10.0146 24C5.30307 24 2.59638 19.8261 1.41144e-05 15.2727Z" fill="url(#paint0_linear_812_10852)"/>
<path fill-rule="evenodd" clip-rule="evenodd" d="M22.2686 8.72727C21.1181 10.7065 19.9948 12.4493 18.7169 13.7452C17.3212 15.1607 15.8294 15.9545 13.9846 15.9545C10.1335 15.9545 6.95367 12.7511 6.95367 8.72727C6.95367 4.7034 10.1335 1.5 13.9846 1.5C15.8294 1.5 17.3212 2.29387 18.7169 3.70931C19.9948 5.00523 21.1181 6.74801 22.2686 8.72727ZM13.9846 17.4545C18.6961 17.4545 21.4028 13.2806 23.9991 8.72727C21.4028 4.17391 18.6961 0 13.9846 0C9.27309 0 5.45367 3.90733 5.45367 8.72727C5.45367 13.5472 9.27309 17.4545 13.9846 17.4545Z" fill="url(#paint1_linear_812_10852)"/>
<defs>
<linearGradient id="paint0_linear_812_10852" x1="9.27274" y1="24" x2="9.27274" y2="6.54546" gradientUnits="userSpaceOnUse">
<stop stop-color="#26FFA4"/>
<stop offset="1" stop-color="#00B2FF"/>
</linearGradient>
<linearGradient id="paint1_linear_812_10852" x1="14.7264" y1="0" x2="14.7264" y2="17.4545" gradientUnits="userSpaceOnUse">
<stop stop-color="#90ECFD"/>
<stop offset="1" stop-color="#37FCB2"/>
</linearGradient>
</defs>
</svg>
