<svg width="24" height="24" viewBox="0 0 24 24" fill="none" xmlns="http://www.w3.org/2000/svg">
<path d="M7.77344 13.0859C8.5026 13.8151 9.38802 14.1797 10.4297 14.1797C11.4714 14.1797 12.3568 13.8151 13.0859 13.0859C13.8151 12.3568 14.1797 11.4714 14.1797 10.4297C14.1797 9.38802 13.8151 8.5026 13.0859 7.77344C12.3568 7.04427 11.4714 6.67969 10.4297 6.67969C9.38802 6.67969 8.5026 7.04427 7.77344 7.77344C7.04427 8.5026 6.67969 9.38802 6.67969 10.4297C6.67969 11.4714 7.04427 12.3568 7.77344 13.0859ZM15.4297 14.1797L19.5703 18.3203L18.3203 19.5703L14.1797 15.4297V14.7656L13.9453 14.5312C12.9557 15.3906 11.7839 15.8203 10.4297 15.8203C8.91927 15.8203 7.63021 15.2995 6.5625 14.2578C5.52083 13.2161 5 11.9401 5 10.4297C5 8.91927 5.52083 7.64323 6.5625 6.60156C7.63021 5.53385 8.91927 5 10.4297 5C11.9401 5 13.2161 5.53385 14.2578 6.60156C15.2995 7.64323 15.8203 8.91927 15.8203 10.4297C15.8203 10.9766 15.6901 11.6016 15.4297 12.3047C15.1693 12.9818 14.8698 13.5286 14.5312 13.9453L14.7656 14.1797H15.4297Z" fill="#ADB3C4"/>
</svg>
