<svg width="28" height="28" viewBox="0 0 28 28" fill="none" xmlns="http://www.w3.org/2000/svg">
<path d="M1.8049e-05 17.9198C3.0576 12.6607 6.2451 7.83991 11.7935 7.83991C17.342 7.83991 21.8398 12.3528 21.8398 17.9198C21.8398 23.4868 17.342 27.9998 11.7935 27.9998C6.2451 27.9998 3.05759 23.1789 1.8049e-05 17.9198Z" fill="url(#paint0_linear_8_4436)"/>
<path fill-rule="evenodd" clip-rule="evenodd" d="M25.9621 10.3599C24.6072 12.7094 23.2843 14.7783 21.7795 16.3166C20.1359 17.9968 18.379 18.9392 16.2065 18.9392C11.6713 18.9392 7.92661 15.1366 7.92661 10.3599C7.92661 5.58328 11.6713 1.78061 16.2065 1.78061C18.379 1.78061 20.1359 2.72299 21.7795 4.40323C23.2843 5.94157 24.6072 8.01039 25.9621 10.3599ZM16.2065 20.7198C21.7549 20.7198 24.9424 15.7651 28 10.3599C24.9424 4.95474 21.7549 0 16.2065 0C10.658 0 6.16016 4.63829 6.16016 10.3599C6.16016 16.0815 10.658 20.7198 16.2065 20.7198Z" fill="url(#paint1_linear_8_4436)"/>
<defs>
<linearGradient id="paint0_linear_8_4436" x1="10.9199" y1="27.9998" x2="10.9199" y2="7.83991" gradientUnits="userSpaceOnUse">
<stop stop-color="#26FFA4"/>
<stop offset="1" stop-color="#00B2FF"/>
</linearGradient>
<linearGradient id="paint1_linear_8_4436" x1="17.0801" y1="0" x2="17.0801" y2="20.7198" gradientUnits="userSpaceOnUse">
<stop stop-color="#90ECFD"/>
<stop offset="1" stop-color="#37FCB2"/>
</linearGradient>
</defs>
</svg>
