<svg width="18" height="19" viewBox="0 0 18 19" fill="none" xmlns="http://www.w3.org/2000/svg">
<path d="M9 0.23999C7.81331 0.23999 6.65327 0.591886 5.66658 1.25117C4.67988 1.91046 3.91085 2.84754 3.45672 3.94389C3.0026 5.04025 2.88378 6.24665 3.11529 7.41054C3.3468 8.57442 3.91825 9.64352 4.75737 10.4826C5.59648 11.3218 6.66558 11.8932 7.82946 12.1247C8.99335 12.3562 10.1998 12.2374 11.2961 11.7833C12.3925 11.3291 13.3295 10.5601 13.9888 9.57341C14.6481 8.58671 15 7.42668 15 6.23999C15 4.64869 14.3679 3.12257 13.2426 1.99735C12.1174 0.872134 10.5913 0.23999 9 0.23999ZM9 8.98999L6.25 6.23999L9 3.49999L11.75 6.23999L9 8.98999Z" fill="#5A6689"/>
<path d="M15 18.24V13.8H3V18.24H15Z" fill="#9199B1"/>
</svg>
